<svg width="115" height="30" viewBox="0 0 115 30" fill="none" xmlns="http://www.w3.org/2000/svg">
<path d="M35.8252 10.0469H37.5615L40.1182 17.3545L42.6748 10.0469H44.4111L40.8154 20H39.4209L35.8252 10.0469ZM34.8887 10.0469H36.6182L36.9326 17.1699V20H34.8887V10.0469ZM43.6182 10.0469H45.3545V20H43.3037V17.1699L43.6182 10.0469ZM51.0215 18.332V15.0371C51.0215 14.8001 50.9827 14.5973 50.9053 14.4287C50.8278 14.2555 50.707 14.1211 50.543 14.0254C50.3835 13.9297 50.1761 13.8818 49.9209 13.8818C49.7021 13.8818 49.513 13.9206 49.3535 13.998C49.194 14.071 49.071 14.1781 48.9844 14.3193C48.8978 14.4561 48.8545 14.6178 48.8545 14.8047H46.8857C46.8857 14.4902 46.9587 14.1917 47.1045 13.9092C47.2503 13.6266 47.4622 13.3783 47.7402 13.1641C48.0182 12.9453 48.3486 12.7744 48.7314 12.6514C49.1188 12.5283 49.5518 12.4668 50.0303 12.4668C50.6045 12.4668 51.1149 12.5625 51.5615 12.7539C52.0081 12.9453 52.359 13.2324 52.6143 13.6152C52.874 13.998 53.0039 14.4766 53.0039 15.0508V18.2158C53.0039 18.6214 53.029 18.9541 53.0791 19.2139C53.1292 19.4691 53.2021 19.6924 53.2979 19.8838V20H51.3086C51.2129 19.7995 51.14 19.5488 51.0898 19.248C51.0443 18.9427 51.0215 18.6374 51.0215 18.332ZM51.2812 15.4951L51.2949 16.6094H50.1943C49.9346 16.6094 49.709 16.639 49.5176 16.6982C49.3262 16.7575 49.1689 16.8418 49.0459 16.9512C48.9229 17.056 48.8317 17.179 48.7725 17.3203C48.7178 17.4616 48.6904 17.6165 48.6904 17.7852C48.6904 17.9538 48.7292 18.1064 48.8066 18.2432C48.8841 18.3753 48.9958 18.4801 49.1416 18.5576C49.2874 18.6305 49.4583 18.667 49.6543 18.667C49.9505 18.667 50.208 18.6077 50.4268 18.4893C50.6455 18.3708 50.8141 18.2249 50.9326 18.0518C51.0557 17.8786 51.1195 17.7145 51.124 17.5596L51.6436 18.3936C51.5706 18.5804 51.4704 18.7741 51.3428 18.9746C51.2197 19.1751 51.0625 19.3643 50.8711 19.542C50.6797 19.7152 50.4495 19.8587 50.1807 19.9727C49.9118 20.082 49.5928 20.1367 49.2236 20.1367C48.7542 20.1367 48.3281 20.0433 47.9453 19.8564C47.5671 19.665 47.2663 19.403 47.043 19.0703C46.8242 18.7331 46.7148 18.3503 46.7148 17.9219C46.7148 17.5345 46.7878 17.1904 46.9336 16.8896C47.0794 16.5889 47.2936 16.3359 47.5762 16.1309C47.8633 15.9212 48.221 15.764 48.6494 15.6592C49.0778 15.5498 49.5745 15.4951 50.1396 15.4951H51.2812ZM56.4902 14.2168V20H54.5215V12.6035H56.374L56.4902 14.2168ZM58.7188 12.5557L58.6846 14.3809C58.5889 14.3672 58.4727 14.3558 58.3359 14.3467C58.2038 14.333 58.083 14.3262 57.9736 14.3262C57.6956 14.3262 57.4541 14.3626 57.249 14.4355C57.0485 14.5039 56.8799 14.6064 56.7432 14.7432C56.611 14.8799 56.5107 15.0462 56.4424 15.2422C56.3786 15.4382 56.3421 15.6615 56.333 15.9121L55.9365 15.7891C55.9365 15.3105 55.9844 14.8708 56.0801 14.4697C56.1758 14.0641 56.3148 13.7109 56.4971 13.4102C56.6839 13.1094 56.9118 12.877 57.1807 12.7129C57.4495 12.5488 57.7572 12.4668 58.1035 12.4668C58.2129 12.4668 58.3245 12.4759 58.4385 12.4941C58.5524 12.5078 58.6458 12.5283 58.7188 12.5557ZM61.6172 9.49316V20H59.6484V9.49316H61.6172ZM66.2793 12.6035L63.0664 16.2676L61.3438 18.0107L60.626 16.5889L61.9932 14.8525L63.9141 12.6035H66.2793ZM64.2354 20L62.0479 16.582L63.4082 15.3926L66.5049 20H64.2354ZM70.3945 20.1367C69.8203 20.1367 69.3053 20.0456 68.8496 19.8633C68.3939 19.6764 68.0065 19.4189 67.6875 19.0908C67.373 18.7627 67.1315 18.3822 66.9629 17.9492C66.7943 17.5117 66.71 17.0469 66.71 16.5547V16.2812C66.71 15.7207 66.7897 15.208 66.9492 14.7432C67.1087 14.2783 67.3366 13.875 67.6328 13.5332C67.9336 13.1914 68.2982 12.9294 68.7266 12.7471C69.1549 12.5602 69.638 12.4668 70.1758 12.4668C70.6999 12.4668 71.1647 12.5534 71.5703 12.7266C71.9759 12.8997 72.3154 13.1458 72.5889 13.4648C72.8669 13.7839 73.0765 14.1667 73.2178 14.6133C73.359 15.0553 73.4297 15.5475 73.4297 16.0898V16.9102H67.5508V15.5977H71.4951V15.4473C71.4951 15.1738 71.445 14.93 71.3447 14.7158C71.249 14.4971 71.1032 14.3239 70.9072 14.1963C70.7113 14.0687 70.4606 14.0049 70.1553 14.0049C69.8955 14.0049 69.6722 14.0618 69.4854 14.1758C69.2985 14.2897 69.1458 14.4492 69.0273 14.6543C68.9134 14.8594 68.8268 15.1009 68.7676 15.3789C68.7129 15.6523 68.6855 15.9531 68.6855 16.2812V16.5547C68.6855 16.8509 68.7266 17.1243 68.8086 17.375C68.8952 17.6257 69.016 17.8421 69.1709 18.0244C69.3304 18.2067 69.5218 18.348 69.7451 18.4482C69.973 18.5485 70.2305 18.5986 70.5176 18.5986C70.873 18.5986 71.2035 18.5303 71.5088 18.3936C71.8187 18.2523 72.0853 18.0404 72.3086 17.7578L73.2656 18.7969C73.1107 19.0202 72.8988 19.2344 72.6299 19.4395C72.3656 19.6445 72.0465 19.8132 71.6729 19.9453C71.2992 20.0729 70.873 20.1367 70.3945 20.1367ZM78.1738 12.6035V13.998H73.8672V12.6035H78.1738ZM74.9336 10.7783H76.9023V17.7715C76.9023 17.9857 76.9297 18.1497 76.9844 18.2637C77.0436 18.3776 77.1302 18.4574 77.2441 18.5029C77.3581 18.5439 77.5016 18.5645 77.6748 18.5645C77.7979 18.5645 77.9072 18.5599 78.0029 18.5508C78.1032 18.5371 78.1875 18.5234 78.2559 18.5098L78.2627 19.959C78.0941 20.0137 77.9118 20.057 77.7158 20.0889C77.5199 20.1208 77.3034 20.1367 77.0664 20.1367C76.6335 20.1367 76.2552 20.0661 75.9316 19.9248C75.6126 19.779 75.3665 19.5465 75.1934 19.2275C75.0202 18.9085 74.9336 18.4893 74.9336 17.9697V10.7783ZM81.2637 14.0254V22.8438H79.2949V12.6035H81.1201L81.2637 14.0254ZM85.9463 16.2197V16.3633C85.9463 16.901 85.8825 17.4001 85.7549 17.8604C85.6318 18.3206 85.4495 18.7217 85.208 19.0635C84.9665 19.4007 84.6657 19.665 84.3057 19.8564C83.9502 20.0433 83.54 20.1367 83.0752 20.1367C82.624 20.1367 82.2321 20.0456 81.8994 19.8633C81.5667 19.681 81.2865 19.4258 81.0586 19.0977C80.8353 18.765 80.6553 18.3799 80.5186 17.9424C80.3818 17.5049 80.277 17.0355 80.2041 16.5342V16.1582C80.277 15.6204 80.3818 15.1283 80.5186 14.6816C80.6553 14.2305 80.8353 13.8408 81.0586 13.5127C81.2865 13.18 81.5645 12.9225 81.8926 12.7402C82.2253 12.5579 82.6149 12.4668 83.0615 12.4668C83.5309 12.4668 83.9434 12.5557 84.2988 12.7334C84.6589 12.9111 84.9596 13.1663 85.2012 13.499C85.4473 13.8317 85.6318 14.2282 85.7549 14.6885C85.8825 15.1488 85.9463 15.6592 85.9463 16.2197ZM83.9707 16.3633V16.2197C83.9707 15.9053 83.9434 15.6159 83.8887 15.3516C83.8385 15.0827 83.7565 14.848 83.6426 14.6475C83.5332 14.4469 83.3874 14.292 83.2051 14.1826C83.0273 14.0687 82.8109 14.0117 82.5557 14.0117C82.2868 14.0117 82.0566 14.055 81.8652 14.1416C81.6784 14.2282 81.5257 14.3535 81.4072 14.5176C81.2887 14.6816 81.1999 14.8776 81.1406 15.1055C81.0814 15.3333 81.0449 15.5908 81.0312 15.8779V16.8281C81.054 17.1654 81.1178 17.4684 81.2227 17.7373C81.3275 18.0016 81.4893 18.2113 81.708 18.3662C81.9268 18.5212 82.2139 18.5986 82.5693 18.5986C82.8291 18.5986 83.0479 18.5417 83.2256 18.4277C83.4033 18.3092 83.5469 18.1475 83.6562 17.9424C83.7702 17.7373 83.8499 17.5003 83.8955 17.2314C83.9456 16.9626 83.9707 16.6732 83.9707 16.3633ZM89.248 9.5V20H87.2725V9.5H89.248ZM94.8672 18.332V15.0371C94.8672 14.8001 94.8285 14.5973 94.751 14.4287C94.6735 14.2555 94.5527 14.1211 94.3887 14.0254C94.2292 13.9297 94.0218 13.8818 93.7666 13.8818C93.5479 13.8818 93.3587 13.9206 93.1992 13.998C93.0397 14.071 92.9167 14.1781 92.8301 14.3193C92.7435 14.4561 92.7002 14.6178 92.7002 14.8047H90.7314C90.7314 14.4902 90.8044 14.1917 90.9502 13.9092C91.096 13.6266 91.3079 13.3783 91.5859 13.1641C91.8639 12.9453 92.1943 12.7744 92.5771 12.6514C92.9645 12.5283 93.3975 12.4668 93.876 12.4668C94.4502 12.4668 94.9606 12.5625 95.4072 12.7539C95.8538 12.9453 96.2048 13.2324 96.46 13.6152C96.7197 13.998 96.8496 14.4766 96.8496 15.0508V18.2158C96.8496 18.6214 96.8747 18.9541 96.9248 19.2139C96.9749 19.4691 97.0479 19.6924 97.1436 19.8838V20H95.1543C95.0586 19.7995 94.9857 19.5488 94.9355 19.248C94.89 18.9427 94.8672 18.6374 94.8672 18.332ZM95.127 15.4951L95.1406 16.6094H94.04C93.7803 16.6094 93.5547 16.639 93.3633 16.6982C93.1719 16.7575 93.0146 16.8418 92.8916 16.9512C92.7686 17.056 92.6774 17.179 92.6182 17.3203C92.5635 17.4616 92.5361 17.6165 92.5361 17.7852C92.5361 17.9538 92.5749 18.1064 92.6523 18.2432C92.7298 18.3753 92.8415 18.4801 92.9873 18.5576C93.1331 18.6305 93.304 18.667 93.5 18.667C93.7962 18.667 94.0537 18.6077 94.2725 18.4893C94.4912 18.3708 94.6598 18.2249 94.7783 18.0518C94.9014 17.8786 94.9652 17.7145 94.9697 17.5596L95.4893 18.3936C95.4163 18.5804 95.3161 18.7741 95.1885 18.9746C95.0654 19.1751 94.9082 19.3643 94.7168 19.542C94.5254 19.7152 94.2952 19.8587 94.0264 19.9727C93.7575 20.082 93.4385 20.1367 93.0693 20.1367C92.5999 20.1367 92.1738 20.0433 91.791 19.8564C91.4128 19.665 91.112 19.403 90.8887 19.0703C90.6699 18.7331 90.5605 18.3503 90.5605 17.9219C90.5605 17.5345 90.6335 17.1904 90.7793 16.8896C90.9251 16.5889 91.1393 16.3359 91.4219 16.1309C91.709 15.9212 92.0667 15.764 92.4951 15.6592C92.9235 15.5498 93.4202 15.4951 93.9854 15.4951H95.127ZM101.423 18.5986C101.664 18.5986 101.879 18.5531 102.065 18.4619C102.252 18.3662 102.398 18.234 102.503 18.0654C102.612 17.8923 102.669 17.6895 102.674 17.457H104.526C104.522 17.9766 104.383 18.4391 104.109 18.8447C103.836 19.2458 103.469 19.5625 103.009 19.7949C102.549 20.0228 102.034 20.1367 101.464 20.1367C100.89 20.1367 100.388 20.041 99.96 19.8496C99.5361 19.6582 99.1829 19.3939 98.9004 19.0566C98.6178 18.7148 98.4059 18.3184 98.2646 17.8672C98.1234 17.4115 98.0527 16.9238 98.0527 16.4043V16.2061C98.0527 15.682 98.1234 15.1943 98.2646 14.7432C98.4059 14.2874 98.6178 13.891 98.9004 13.5537C99.1829 13.2119 99.5361 12.9453 99.96 12.7539C100.384 12.5625 100.881 12.4668 101.45 12.4668C102.056 12.4668 102.587 12.583 103.043 12.8154C103.503 13.0479 103.863 13.3805 104.123 13.8135C104.387 14.2419 104.522 14.75 104.526 15.3379H102.674C102.669 15.0918 102.617 14.8685 102.517 14.668C102.421 14.4674 102.28 14.3079 102.093 14.1895C101.91 14.0664 101.685 14.0049 101.416 14.0049C101.129 14.0049 100.894 14.0664 100.712 14.1895C100.53 14.3079 100.388 14.472 100.288 14.6816C100.188 14.8867 100.117 15.1214 100.076 15.3857C100.04 15.6455 100.021 15.9189 100.021 16.2061V16.4043C100.021 16.6914 100.04 16.9671 100.076 17.2314C100.113 17.4958 100.181 17.7305 100.281 17.9355C100.386 18.1406 100.53 18.3024 100.712 18.4209C100.894 18.5394 101.131 18.5986 101.423 18.5986ZM109.072 20.1367C108.498 20.1367 107.983 20.0456 107.527 19.8633C107.072 19.6764 106.684 19.4189 106.365 19.0908C106.051 18.7627 105.809 18.3822 105.641 17.9492C105.472 17.5117 105.388 17.0469 105.388 16.5547V16.2812C105.388 15.7207 105.467 15.208 105.627 14.7432C105.786 14.2783 106.014 13.875 106.311 13.5332C106.611 13.1914 106.976 12.9294 107.404 12.7471C107.833 12.5602 108.316 12.4668 108.854 12.4668C109.378 12.4668 109.842 12.5534 110.248 12.7266C110.654 12.8997 110.993 13.1458 111.267 13.4648C111.545 13.7839 111.754 14.1667 111.896 14.6133C112.037 15.0553 112.107 15.5475 112.107 16.0898V16.9102H106.229V15.5977H110.173V15.4473C110.173 15.1738 110.123 14.93 110.022 14.7158C109.927 14.4971 109.781 14.3239 109.585 14.1963C109.389 14.0687 109.138 14.0049 108.833 14.0049C108.573 14.0049 108.35 14.0618 108.163 14.1758C107.976 14.2897 107.824 14.4492 107.705 14.6543C107.591 14.8594 107.505 15.1009 107.445 15.3789C107.391 15.6523 107.363 15.9531 107.363 16.2812V16.5547C107.363 16.8509 107.404 17.1243 107.486 17.375C107.573 17.6257 107.694 17.8421 107.849 18.0244C108.008 18.2067 108.2 18.348 108.423 18.4482C108.651 18.5485 108.908 18.5986 109.195 18.5986C109.551 18.5986 109.881 18.5303 110.187 18.3936C110.496 18.2523 110.763 18.0404 110.986 17.7578L111.943 18.7969C111.788 19.0202 111.576 19.2344 111.308 19.4395C111.043 19.6445 110.724 19.8132 110.351 19.9453C109.977 20.0729 109.551 20.1367 109.072 20.1367Z" fill="black"/>
<g clip-path="url(#clip0_1_2)">
<path d="M22.2207 12.2208C22.1536 12.6848 21.8485 13.3153 21.4986 13.8634C21.0571 14.555 20.3564 15.0394 19.5545 15.2076L16.0222 15.9486C15.4546 16.0676 14.9397 16.3656 14.5532 16.7991L12.2371 19.3961C11.8018 19.8841 11.4976 19.7677 11.4976 19.1131C11.4923 19.1374 10.3481 22.0975 13.3804 23.8519C14.5455 24.5261 16.2227 24.2838 17.3878 23.6097L23.561 20.0378C25.8696 18.702 27.4997 16.4421 28.0416 13.8263C28.0629 13.7227 28.0795 13.6189 28.0974 13.5152L22.2207 12.2208Z" fill="url(#paint0_linear_1_2)"/>
<path d="M20.6197 8.6525C21.7848 9.32664 22.2608 10.3303 22.2608 11.6786C22.2608 11.8616 22.2465 12.0424 22.2207 12.2205L24.7081 13.2923L28.0974 13.5148C28.5314 10.9953 27.6808 8.40184 26.1562 6.34042C25.0088 4.7891 23.5323 3.44286 21.7573 2.41581C20.3154 1.58152 18.817 1.03183 17.3116 0.730209L15.6202 2.92749L15.0859 5.45054L20.6197 8.6525Z" fill="url(#paint1_linear_1_2)"/>
<path d="M0.710127 10.5016C0.709494 10.5036 0.711246 10.5042 0.711906 10.5022C0.842427 10.1095 1.00609 9.67136 1.21042 9.20336C2.27771 6.75845 4.33446 5.12784 6.86476 4.29644C9.39509 3.46505 12.1578 3.75647 14.4638 5.0908L15.0859 5.45071L17.3116 0.730373C10.2325 -0.687969 2.99721 3.48412 0.719127 10.4743C0.718038 10.4776 0.714078 10.4893 0.710127 10.5016Z" fill="url(#paint2_linear_1_2)"/>
<path d="M17.1462 23.6095C15.9811 24.2836 14.5456 24.2836 13.3805 23.6095C13.2224 23.5179 13.0733 23.4151 12.9323 23.3036L10.8833 24.7168L9.11716 27.5796C11.0774 29.2161 13.6229 29.7422 16.1666 29.4495C18.0809 29.2294 19.9824 28.6211 21.7574 27.594C23.1993 26.7597 24.4235 25.7341 25.4368 24.5783L24.3838 22.0116L22.68 20.4075L17.1462 23.6095Z" fill="url(#paint3_linear_1_2)"/>
<path d="M12.9323 23.3037C12.0346 22.5945 11.4978 21.5065 11.4978 20.3413V20.2251V10.5204C11.4978 9.97154 11.6589 9.87827 12.1332 10.1527C11.4027 9.73 9.71528 8.2791 7.63171 9.48463C6.46662 10.1588 5.5072 11.6469 5.5072 12.9951V20.139C5.5072 22.8106 6.88666 25.5975 8.87626 27.3757C8.95496 27.446 9.03643 27.5124 9.11716 27.5797L12.9323 23.3037Z" fill="url(#paint4_linear_1_2)"/>
<path d="M25.2939 5.28391C25.2925 5.28237 25.2912 5.28361 25.2925 5.28517C25.5666 5.5948 25.8634 5.95591 26.1657 6.36727C27.7448 8.51605 28.3347 11.2375 27.7881 13.8494C27.2413 16.4611 25.6082 18.7133 23.302 20.0475L22.68 20.4075L25.4369 24.5783C30.2021 19.1433 30.2145 10.7776 25.313 5.3054C25.3107 5.30278 25.3026 5.29352 25.2939 5.28391Z" fill="url(#paint5_linear_1_2)"/>
<path d="M5.74884 12.9949C5.74883 11.6466 6.46657 10.4007 7.63165 9.72663C7.78981 9.63509 7.95326 9.55718 8.12002 9.49045L7.92338 7.00548L6.54187 4.16237C4.14764 5.0455 2.21098 6.8706 1.19197 9.22463C0.425119 10.9961 8.874e-06 12.9507 0 15.0047C0 16.6734 0.274185 18.2486 0.766264 19.7061L3.51073 20.0754L5.74884 19.3988V12.9949Z" fill="url(#paint6_linear_1_2)"/>
<path d="M8.12001 9.49046C9.18175 9.06604 10.3903 9.14401 11.3973 9.72664L11.4977 9.78473L19.5591 14.4492C20.1246 14.7764 20.0732 15.0984 19.4341 15.2325L19.8992 15.1349C20.5111 15.0066 21.0701 14.6928 21.4977 14.2356C22.2327 13.4496 22.5026 12.5014 22.5026 11.6785C22.5025 10.3302 21.7849 9.08431 20.6198 8.41019L14.4465 4.83827C12.1378 3.50243 9.37007 3.21759 6.83864 4.05531C6.7385 4.08843 6.64048 4.12601 6.54187 4.16238L8.12001 9.49046Z" fill="url(#paint7_linear_1_2)"/>
<path d="M17.5107 29.2294C17.5128 29.2289 17.5125 29.2271 17.5104 29.2275C17.1057 29.3106 16.6454 29.3876 16.1388 29.4444C13.4923 29.7405 10.8456 28.8918 8.86199 27.1114C6.87842 25.331 5.74888 22.7875 5.74888 20.1188L5.74887 19.399L0.766296 19.7063C3.08027 26.5596 10.3031 30.7532 17.4826 29.2353C17.4861 29.2345 17.4981 29.2321 17.5107 29.2294Z" fill="url(#paint8_linear_1_2)"/>
</g>
<defs>
<linearGradient id="paint0_linear_1_2" x1="18.1793" y1="22.0637" x2="21.0483" y2="12.102" gradientUnits="userSpaceOnUse">
<stop stop-color="#1724C9"/>
<stop offset="1" stop-color="#1C64F2"/>
</linearGradient>
<linearGradient id="paint1_linear_1_2" x1="24.749" y1="9.90919" x2="17.2222" y2="2.43231" gradientUnits="userSpaceOnUse">
<stop stop-color="#1C64F2"/>
<stop offset="1" stop-color="#0092FF"/>
</linearGradient>
<linearGradient id="paint2_linear_1_2" x1="14.6491" y1="5.01923" x2="3.32956" y2="5.73227" gradientUnits="userSpaceOnUse">
<stop stop-color="#0092FF"/>
<stop offset="1" stop-color="#45B2FF"/>
</linearGradient>
<linearGradient id="paint3_linear_1_2" x1="13.8836" y1="26.5115" x2="24.0531" y2="23.7759" gradientUnits="userSpaceOnUse">
<stop stop-color="#1C64F2"/>
<stop offset="1" stop-color="#0092FF"/>
</linearGradient>
<linearGradient id="paint4_linear_1_2" x1="6.58737" y1="14.7115" x2="13.8279" y2="22.1907" gradientUnits="userSpaceOnUse">
<stop stop-color="#1724C9"/>
<stop offset="1" stop-color="#1C64F2"/>
</linearGradient>
<linearGradient id="paint5_linear_1_2" x1="23.0645" y1="20.1233" x2="28.1254" y2="9.95307" gradientUnits="userSpaceOnUse">
<stop stop-color="#0092FF"/>
<stop offset="1" stop-color="#45B2FF"/>
</linearGradient>
<linearGradient id="paint6_linear_1_2" x1="4.86101" y1="8.75515" x2="2.15063" y2="18.9106" gradientUnits="userSpaceOnUse">
<stop stop-color="#1C64F2"/>
<stop offset="1" stop-color="#0092FF"/>
</linearGradient>
<linearGradient id="paint7_linear_1_2" x1="18.6172" y1="8.27193" x2="8.7668" y2="10.7168" gradientUnits="userSpaceOnUse">
<stop stop-color="#1724C9"/>
<stop offset="1" stop-color="#1C64F2"/>
</linearGradient>
<linearGradient id="paint8_linear_1_2" x1="5.80614" y1="19.8696" x2="12.1099" y2="29.3223" gradientUnits="userSpaceOnUse">
<stop stop-color="#0092FF"/>
<stop offset="1" stop-color="#45B2FF"/>
</linearGradient>
<clipPath id="clip0_1_2">
<rect width="29" height="30" fill="white"/>
</clipPath>
</defs>
</svg>
